<?xml version="1.0" encoding="UTF-8" standalone="no"?>
<svg
   xmlns:dc="http://purl.org/dc/elements/1.1/"
   xmlns:cc="http://creativecommons.org/ns#"
   xmlns:rdf="http://www.w3.org/1999/02/22-rdf-syntax-ns#"
   xmlns:svg="http://www.w3.org/2000/svg"
   xmlns="http://www.w3.org/2000/svg"
   viewBox="0 0 173.78667 35.906666"
   height="35.906666"
   width="173.78667"
   xml:space="preserve"
   id="svg2"
   version="1.1"><metadata
     id="metadata8"><rdf:RDF><cc:Work
         rdf:about=""><dc:format>image/svg+xml</dc:format><dc:type
           rdf:resource="http://purl.org/dc/dcmitype/StillImage" /></cc:Work></rdf:RDF></metadata><defs
     id="defs6" /><g
     transform="matrix(1.3333333,0,0,-1.3333333,0,35.906667)"
     id="g10"><g
       transform="scale(0.1)"
       id="g12"><path
         id="path14"
         style="fill:#ef3120;fill-opacity:1;fill-rule:nonzero;stroke:none"
         d="m 1043.83,44.3477 c -0.96,-2.3086 -1.91,-4.8438 -2.95,-7.4727 -1.1,3.418 -1.58,4.7656 -2.77,7.7148 l -4.85,11.7579 h -14.64 -2.37 -15.27 l -12.23,-25.586 13.91,-29.804669 h 18.75 l -17.33,30.039069 13.31,23.2031 15.95,-30.1172 V 0.957031 h 14.53 V 24.3945 l 17.74,31.9532 h -16.94 l -4.84,-12" /><path
         id="path16"
         style="fill:#ef3120;fill-opacity:1;fill-rule:nonzero;stroke:none"
         d="M 776.121,31.9414 H 771.98 V 44.668 h 4.946 c 3.418,0 5.711,-0.8672 5.711,-5.4883 0,-6.043 -2.051,-7.2383 -6.516,-7.2383 z m -0.32,24.4063 H 757.773 V 0.957031 H 771.98 V 20.6758 h 4.465 c 18.125,0 21.692,10.2305 21.692,18.4258 0,12.6367 -8.266,17.2461 -22.336,17.2461" /><path
         id="path18"
         style="fill:#ef3120;fill-opacity:1;fill-rule:nonzero;stroke:none"
         d="m 440.938,11.6797 c -2.942,0 -5.247,1.3476 -7.071,3.4844 -2.312,2.7187 -2.715,7.082 -2.715,16.2226 0,6.5235 0.879,9.3946 3.582,12.168 1.426,1.5117 3.743,2.1601 6.204,2.1601 3.015,0 5.8,-1.0468 8.273,-2.9492 l 6.031,10.4883 c -2.539,2.4609 -8.504,4.043 -14.148,4.043 -9.699,0 -17.715,-3.8906 -22.41,-12.5508 -2.7,-5.0117 -3.813,-10.2539 -3.813,-17.168 0,-7.8711 1.992,-15.1054 6.352,-19.94919 C 426.316,2.07031 432.52,0 439.348,0 c 8.101,0 13.75,2.38281 17.246,5.63672 L 450.48,15.332 c -3.109,-2.7812 -5.968,-3.6523 -9.542,-3.6523" /><path
         id="path20"
         style="fill:#ef3120;fill-opacity:1;fill-rule:nonzero;stroke:none"
         d="m 440.227,69.6953 -11.047,5.5703 -4.453,-7.3828 15.019,-9.4648 15.188,9.4648 -3.977,7.3828 -10.73,-5.5703" /><path
         id="path22"
         style="fill:#ef3120;fill-opacity:1;fill-rule:nonzero;stroke:none"
         d="m 730.41,24.0938 h 13.828 V 35.3594 H 730.41 v 9.3086 h 16.934 l 1.035,11.6797 h -32.18 V 0.957031 h 33.215 V 12.793 H 730.41 v 11.3008" /><path
         id="path24"
         style="fill:#ef3120;fill-opacity:1;fill-rule:nonzero;stroke:none"
         d="m 630.352,73.9844 -17.325,-9.6094 4.368,-6.9844 18.359,7.6289 -5.402,8.9649" /><path
         id="path26"
         style="fill:#ef3120;fill-opacity:1;fill-rule:nonzero;stroke:none"
         d="m 684.316,33.3789 h -4.05 V 44.668 h 3.972 c 4.453,0 6.602,-1.2696 6.602,-5.2422 0,-3.7422 -1.66,-6.0469 -6.524,-6.0469 z m 10.821,-8.3398 c 6.504,1.1132 11.523,5.9453 11.523,15.4961 0,9.2226 -5.254,15.8125 -21.543,15.8125 h -19.07 V 0.957031 h 14.219 V 22.8906 c 3.093,0 4.363,-0.7109 6.511,-6.4453 l 5.821,-15.488269 h 16.433 C 707.207,5.08984 702.52,15.3438 700.691,19.082 c -1.355,2.8594 -3.648,5.3985 -5.554,5.9571" /><path
         id="path28"
         style="fill:#ef3120;fill-opacity:1;fill-rule:nonzero;stroke:none"
         d="m 620.801,24.0938 h 13.847 v 11.2656 h -13.847 v 9.3086 h 16.941 l 1.035,11.6797 H 606.594 V 0.957031 h 33.211 V 12.793 h -19.004 v 11.3008" /><path
         id="path30"
         style="fill:#ef3120;fill-opacity:1;fill-rule:nonzero;stroke:none"
         d="m 530.281,35.6055 -5.633,1.4336 c -4.128,1.0273 -5.41,2.8632 -5.41,4.6875 0,2.2265 1.985,3.9882 5.645,3.9882 3.808,0 8.738,-1.4492 12.472,-3.9062 l 6.833,10.0859 c -4.918,3.4258 -12.071,5.4024 -19.786,5.4024 -12.398,0 -21.453,-7.3086 -21.453,-18.2656 0,-9.5391 5.481,-14.004 13.504,-16.0625 l 6.527,-1.668 c 3.805,-0.957 5.555,-2.0742 5.555,-4.543 0,-3.0195 -2.219,-5.0781 -7.793,-5.0781 -5.637,0 -11.601,2.1367 -15.574,4.4531 L 500.168,5 c 5.555,-2.92969 12.078,-5 20.418,-5 14.387,0 24.238,6.99219 24.238,20.2656 0,11.1211 -8.574,13.836 -14.543,15.3399" /><path
         id="path32"
         style="fill:#ef3120;fill-opacity:1;fill-rule:nonzero;stroke:none"
         d="m 948.293,0.957031 h 14.539 V 56.3477 H 948.293 V 0.957031" /><path
         id="path34"
         style="fill:#ef3120;fill-opacity:1;fill-rule:nonzero;stroke:none"
         d="m 877.703,12.793 h -5.406 v 10.9765 h 5.242 c 4.387,0 5.266,-2.4687 5.266,-5.2539 0,-3.4179 -1.516,-5.7226 -5.102,-5.7226 z m -5.406,31.875 h 5.484 c 3.34,0 4.778,-1.5157 4.778,-4.3633 0,-2.8711 -1.192,-5.2656 -4.61,-5.2656 h -5.652 z m 16.695,-14.1524 c 6.125,1.9844 8.176,7.2266 8.176,12.25 0,10.1641 -6.504,13.5821 -14.531,13.5821 H 858.086 V 0.957031 h 22.48 c 12.637,0 18.594,6.980469 18.594,17.078169 0,6.6836 -4.765,11.0586 -10.168,12.4804" /><path
         id="path36"
         style="fill:#ef3120;fill-opacity:1;fill-rule:nonzero;stroke:none"
         d="m 553.977,0.957031 h 14.214 V 56.3477 H 553.977 V 0.957031" /><path
         id="path38"
         style="fill:#ef3120;fill-opacity:1;fill-rule:nonzero;stroke:none"
         d="m 476.387,24.0938 h 13.828 v 11.2656 h -13.828 v 9.3086 h 16.933 l 1.028,11.6797 h -32.18 V 0.957031 h 33.215 V 12.793 h -18.996 v 11.3008" /><path
         id="path40"
         style="fill:#ef3120;fill-opacity:1;fill-rule:nonzero;stroke:none"
         d="m 974.363,0.957031 h 14.223 V 56.3477 H 974.363 V 0.957031" /><path
         id="path42"
         style="fill:#ef3120;fill-opacity:1;fill-rule:nonzero;stroke:none"
         d="M 598.23,56.3477 H 580.598 L 568.352,30.7617 582.258,0.957031 h 18.758 L 583.691,30.9961 598.23,56.3477" /><path
         id="path44"
         style="fill:#ef3120;fill-opacity:1;fill-rule:nonzero;stroke:none"
         d="m 832.727,19.9414 c 0,-5.4023 -1.438,-8.2617 -6.528,-8.2617 -5.008,0 -6.609,3.4101 -6.609,8.4961 V 56.3477 H 805.305 V 18.6719 c 0,-7.3946 0.554,-8.82034 2.703,-11.76956 C 811.25,2.29688 817.371,0 826.121,0 c 10.969,0 17.082,4.28516 19.465,8.89453 1.113,2.22657 1.355,4.37497 1.355,9.13277 V 56.3477 H 832.727 V 19.9414" /><path
         id="path46"
         style="fill:#ef3120;fill-opacity:1;fill-rule:nonzero;stroke:none"
         d="M 922.695,56.3477 H 908.32 V 0.957031 h 30.508 l 2.695,11.746069 h -18.828 v 43.6446" /><path
         id="path48"
         style="fill:#ef3120;fill-opacity:1;fill-rule:nonzero;stroke:none"
         d="m 1275.12,118.945 2.22,9.063 c 0.8,3.574 1.36,6.433 1.53,8.496 0.08,-2.063 0.47,-5.156 1.02,-7.473 l 2.4,-10.086 z m 11.53,33.778 h -14.77 L 1254.06,97.3359 H 1269 l 3.02,10.6521 h 13.12 l 2.87,-10.6521 h 15.41 l -16.77,55.3871" /><path
         id="path50"
         style="fill:#ef3120;fill-opacity:1;fill-rule:nonzero;stroke:none"
         d="m 414.07,107.02 v -9.6841 h 37.844 l 1.113,11.8241 h -15.91 c -2.058,0 -4.762,-0.156 -6.031,-0.476 0.555,0.476 1.824,1.754 2.547,2.937 l 19.07,31.172 v 9.93 h -35.926 l -1.035,-11.676 h 14.395 c 1.828,0 4.289,0.074 5.476,0.398 -0.789,-0.715 -2.136,-2.937 -3.179,-4.687 L 414.07,107.02" /><path
         id="path52"
         style="fill:#ef3120;fill-opacity:1;fill-rule:nonzero;stroke:none"
         d="m 1027.7,108.059 c -5.65,0 -11.61,2.136 -15.59,4.453 l -5,-11.125 c 5.57,-2.9417 12.08,-5.0081 20.42,-5.0081 14.38,0 24.25,6.9881 24.25,20.2541 0,11.14 -8.59,13.844 -14.55,15.347 l -5.64,1.438 c -4.14,1.023 -5.41,2.859 -5.41,4.687 0,2.227 1.98,3.985 5.66,3.985 3.8,0 8.73,-1.438 12.46,-3.906 l 6.83,10.086 c -4.92,3.429 -12.07,5.402 -19.78,5.402 -12.4,0 -21.46,-7.293 -21.46,-18.274 0,-9.531 5.48,-13.992 13.51,-16.05 l 6.52,-1.672 c 3.81,-0.957 5.57,-2.071 5.57,-4.531 0,-3.028 -2.23,-5.086 -7.79,-5.086" /><path
         id="path54"
         style="fill:#ef3120;fill-opacity:1;fill-rule:nonzero;stroke:none"
         d="m 1044.22,165.527 -4.38,7.383 -10.72,-5.558 -11.05,5.558 -4.05,-7.383 15.34,-10.73 14.86,10.73" /><path
         id="path56"
         style="fill:#ef3120;fill-opacity:1;fill-rule:nonzero;stroke:none"
         d="m 1092.47,164.258 -3.97,7.383 -10.75,-5.555 -11.03,5.555 -4.45,-7.383 15.02,-9.461 15.18,9.461" /><path
         id="path58"
         style="fill:#ef3120;fill-opacity:1;fill-rule:nonzero;stroke:none"
         d="M 997.961,152.723 H 983.418 V 97.3359 h 14.543 v 55.3871" /><path
         id="path60"
         style="fill:#ef3120;fill-opacity:1;fill-rule:nonzero;stroke:none"
         d="m 526.934,141.047 h 3.984 c 4.453,0 6.602,-1.274 6.602,-5.258 0,-3.738 -1.668,-6.031 -6.524,-6.031 h -4.062 z m 0,-21.781 c 3.105,0 4.375,-0.711 6.535,-6.434 l 5.801,-15.4961 h 16.445 c -1.828,4.1291 -6.527,14.3831 -8.344,18.1251 -1.348,2.848 -3.66,5.398 -5.555,5.953 6.504,1.113 11.504,5.949 11.504,15.5 0,9.219 -5.234,15.809 -21.523,15.809 h -19.07 V 97.3359 h 14.207 v 21.9301" /><path
         id="path62"
         style="fill:#ef3120;fill-opacity:1;fill-rule:nonzero;stroke:none"
         d="m 1178.79,130.313 c -1.04,-2.864 -2.07,-6.36 -2.94,-10.809 h -0.08 c -0.87,4.93 -1.59,6.988 -2.63,10.406 l -6.99,22.813 h -15.66 l 18.85,-55.3871 h 12.79 l 19.55,55.3871 h -15.02 l -7.87,-22.41" /><path
         id="path64"
         style="fill:#ef3120;fill-opacity:1;fill-rule:nonzero;stroke:none"
         d="m 1234.75,135.559 c 0,-3.657 0.07,-9.145 0.48,-12.407 -1.34,3.743 -3.02,7.629 -4.6,10.571 l -10.12,19 h -13.65 V 97.3359 h 13.5 v 15.5621 c 0,6.848 -0.48,11.926 -0.8,14.075 1.19,-3.575 2.86,-7.547 4.31,-10.41 l 9.77,-19.2271 h 14.62 v 55.3871 h -13.51 v -17.164" /><path
         id="path66"
         style="fill:#ef3120;fill-opacity:1;fill-rule:nonzero;stroke:none"
         d="m 808.789,97.3359 h 14.539 V 152.723 H 808.789 V 97.3359" /><path
         id="path68"
         style="fill:#ef3120;fill-opacity:1;fill-rule:nonzero;stroke:none"
         d="m 822.305,170.359 -17.325,-9.605 4.375,-6.984 18.36,7.625 -5.41,8.964" /><path
         id="path70"
         style="fill:#ef3120;fill-opacity:1;fill-rule:nonzero;stroke:none"
         d="m 768.965,112.898 c 0,6.848 -0.469,11.926 -0.801,14.075 1.191,-3.575 2.871,-7.547 4.309,-10.41 l 9.773,-19.2271 h 14.629 v 55.3871 h -13.516 v -17.164 c 0,-3.657 0.079,-9.145 0.489,-12.407 -1.36,3.743 -3.028,7.629 -4.61,10.571 l -10.117,19 h -13.66 V 97.3359 h 13.504 v 15.5621" /><path
         id="path72"
         style="fill:#ef3120;fill-opacity:1;fill-rule:nonzero;stroke:none"
         d="m 708.496,140.969 h 12.871 V 97.3359 h 14.375 v 43.6331 h 12.879 l 1.672,11.754 h -41.797 v -11.754" /><path
         id="path74"
         style="fill:#ef3120;fill-opacity:1;fill-rule:nonzero;stroke:none"
         d="m 866.973,141.047 h 4.922 c 3.425,0 5.742,-0.871 5.742,-5.488 0,-6.047 -2.071,-7.239 -6.543,-7.239 h -4.121 z m 0,-24.008 h 4.453 c 18.117,0 21.699,10.246 21.699,18.449 0,12.625 -8.262,17.235 -22.332,17.235 H 852.754 V 97.3359 h 14.219 v 19.7031" /><path
         id="path76"
         style="fill:#ef3120;fill-opacity:1;fill-rule:nonzero;stroke:none"
         d="m 923.496,107.578 c -5.898,0 -9.316,3.496 -9.316,17.645 0,10.578 2.715,17.336 9.148,17.336 6.125,0 8.84,-3.34 8.84,-17.176 0,-14.231 -2.637,-17.805 -8.672,-17.805 z m 0.227,46.094 c -14.621,0 -25.43,-10.313 -25.43,-30.039 0,-16.621 8.895,-27.2541 24.961,-27.2541 19.793,0 24.793,14.8511 24.793,30.7621 0,12.156 -5.488,26.531 -24.324,26.531" /><path
         id="path78"
         style="fill:#ef3120;fill-opacity:1;fill-rule:nonzero;stroke:none"
         d="m 957.344,107.109 c 0,-10.0113 -0.469,-13.1949 -7.305,-17.8824 l 6.524,-7 c 7.773,2.7929 15.332,9.2187 15.332,18.8364 v 51.66 h -14.551 v -45.614" /><path
         id="path80"
         style="fill:#ef3120;fill-opacity:1;fill-rule:nonzero;stroke:none"
         d="m 1056.94,140.969 h 12.88 V 97.3359 h 14.38 v 43.6331 h 12.87 l 1.67,11.754 h -41.8 v -11.754" /><path
         id="path82"
         style="fill:#ef3120;fill-opacity:1;fill-rule:nonzero;stroke:none"
         d="m 480.762,109.16 h -4.778 v 31.887 h 4.375 c 4.309,0 7.563,-1.672 7.563,-14.555 0,-15.34 -3.176,-17.332 -7.16,-17.332 z m 13.75,40.149 c -4.453,3.093 -9.375,3.414 -13.203,3.414 H 461.777 V 97.3359 h 20.098 c 7.48,0 11.926,2.461 15.422,6.6681 5.008,5.957 6.277,13.43 6.277,22.019 0,11.29 -2.781,18.918 -9.062,23.286" /><path
         id="path84"
         style="fill:#ef3120;fill-opacity:1;fill-rule:nonzero;stroke:none"
         d="m 671.035,125.223 c 0,10.578 2.703,17.336 9.16,17.336 6.114,0 8.809,-3.34 8.809,-17.176 0,-14.231 -2.617,-17.805 -8.652,-17.805 -5.887,0 -9.317,3.496 -9.317,17.645 z m 33.867,1.918 c 0,12.156 -5.488,26.531 -24.316,26.531 -14.629,0 -25.43,-10.313 -25.43,-30.039 0,-16.621 8.899,-27.2541 24.961,-27.2541 19.785,0 24.785,14.8511 24.785,30.7621" /><path
         id="path86"
         style="fill:#ef3120;fill-opacity:1;fill-rule:nonzero;stroke:none"
         d="m 578.215,118.945 2.215,9.063 c 0.8,3.574 1.355,6.433 1.511,8.496 0.079,-2.063 0.481,-5.156 1.047,-7.473 l 2.371,-10.086 z m -3.266,33.778 -17.808,-55.3871 h 14.949 l 3.027,10.6521 h 13.106 l 2.863,-10.6521 h 15.418 l -16.77,55.3871 h -14.785" /><path
         id="path88"
         style="fill:#ef3120;fill-opacity:1;fill-rule:nonzero;stroke:none"
         d="m 631.063,130.313 c -1.036,-2.864 -2.059,-6.36 -2.938,-10.809 h -0.078 c -0.867,4.93 -1.594,6.988 -2.625,10.406 l -6.984,22.813 h -15.665 l 18.836,-55.3871 h 12.793 l 19.563,55.3871 h -15.027 l -7.875,-22.41" /><path
         id="path90"
         style="fill:#ef3120;fill-opacity:1;fill-rule:nonzero;stroke:none"
         d="m 1124.75,107.578 c -5.9,0 -9.32,3.496 -9.32,17.645 0,10.578 2.71,17.336 9.15,17.336 6.12,0 8.84,-3.34 8.84,-17.176 0,-14.231 -2.64,-17.805 -8.67,-17.805 z m 0.23,46.094 c -14.63,0 -25.43,-10.313 -25.43,-30.039 0,-16.621 8.89,-27.2541 24.95,-27.2541 19.8,0 24.8,14.8511 24.8,30.7621 0,12.156 -5.49,26.531 -24.32,26.531" /><path
         id="path92"
         style="fill:#ef3120;fill-opacity:1;fill-rule:nonzero;stroke:none"
         d="m 726.68,192.754 c 8.117,0 13.75,2.391 17.258,5.633 l -6.125,9.707 c -3.094,-2.793 -5.965,-3.66 -9.532,-3.66 -2.949,0 -5.254,1.347 -7.09,3.496 -2.296,2.703 -2.695,7.07 -2.695,16.218 0,6.524 0.867,9.387 3.574,12.161 1.438,1.511 3.731,2.156 6.211,2.156 3.008,0 5.801,-1.035 8.25,-2.949 l 6.047,10.488 c -2.539,2.473 -8.496,4.043 -14.14,4.043 -9.708,0 -17.723,-3.887 -22.415,-12.547 -2.703,-5 -3.804,-10.246 -3.804,-17.168 0,-7.871 1.98,-15.109 6.344,-19.953 5.082,-5.555 11.281,-7.625 18.117,-7.625" /><path
         id="path94"
         style="fill:#ef3120;fill-opacity:1;fill-rule:nonzero;stroke:none"
         d="m 438.801,226.688 c -1.047,-2.86 -2.071,-6.356 -2.942,-10.809 h -0.078 c -0.886,4.93 -1.593,6.992 -2.636,10.41 l -6.985,22.813 h -15.664 l 18.84,-55.391 h 12.805 l 19.547,55.391 h -15.016 l -7.871,-22.414" /><path
         id="path96"
         style="fill:#ef3120;fill-opacity:1;fill-rule:nonzero;stroke:none"
         d="m 501.594,261.902 -4.375,7.383 -10.735,-5.555 -11.046,5.555 -4.051,-7.383 15.343,-10.722 14.864,10.722" /><path
         id="path98"
         style="fill:#ef3120;fill-opacity:1;fill-rule:nonzero;stroke:none"
         d="m 834.551,257.773 -5.41,8.973 -17.325,-9.617 4.375,-6.984 18.36,7.628" /><path
         id="path100"
         style="fill:#ef3120;fill-opacity:1;fill-rule:nonzero;stroke:none"
         d="m 819.363,215.32 2.239,9.063 c 0.703,3.496 1.347,6.281 1.503,8.351 0.079,-2.07 0.469,-5.089 1.036,-7.324 l 2.375,-10.09 z m -3.258,33.782 -17.804,-55.391 h 14.941 l 3.028,10.652 h 13.117 l 2.859,-10.652 h 15.422 l -16.77,55.391 h -14.793" /><path
         id="path102"
         style="fill:#ef3120;fill-opacity:1;fill-rule:nonzero;stroke:none"
         d="m 580.52,238.945 c 6.121,0 8.828,-3.34 8.828,-17.187 0,-14.231 -2.629,-17.805 -8.672,-17.805 -5.891,0 -9.309,3.496 -9.309,17.649 0,10.574 2.715,17.343 9.153,17.343 z m -0.082,-46.191 c 19.789,0 24.796,14.851 24.796,30.762 0,12.168 -5.488,26.531 -24.316,26.531 -14.629,0 -25.43,-10.313 -25.43,-30.039 0,-16.61 8.887,-27.254 24.95,-27.254" /><path
         id="path104"
         style="fill:#ef3120;fill-opacity:1;fill-rule:nonzero;stroke:none"
         d="m 551.105,205.535 h -18.996 v 11.309 h 13.829 v 11.281 h -13.829 v 9.305 h 16.922 l 1.035,11.672 h -32.175 v -55.391 h 33.214 v 11.824" /><path
         id="path106"
         style="fill:#ef3120;fill-opacity:1;fill-rule:nonzero;stroke:none"
         d="m 485.059,204.434 c -5.645,0 -11.602,2.148 -15.586,4.453 l -5,-11.125 c 5.566,-2.938 12.082,-5.008 20.422,-5.008 14.39,0 24.246,6.992 24.246,20.262 0,11.132 -8.582,13.839 -14.539,15.343 l -5.649,1.434 c -4.14,1.035 -5.406,2.863 -5.406,4.687 0,2.227 1.988,3.985 5.652,3.985 3.809,0 8.739,-1.434 12.473,-3.906 l 6.824,10.089 c -4.922,3.426 -12.07,5.399 -19.773,5.399 -12.407,0 -21.465,-7.293 -21.465,-18.27 0,-9.531 5.476,-13.984 13.512,-16.054 l 6.515,-1.672 c 3.809,-0.946 5.567,-2.071 5.567,-4.531 0,-3.016 -2.227,-5.086 -7.793,-5.086" /><path
         id="path108"
         style="fill:#ef3120;fill-opacity:1;fill-rule:nonzero;stroke:none"
         d="m 697.832,205.535 h -19.004 v 11.309 h 13.84 v 11.281 h -13.84 v 9.305 h 16.934 l 1.035,11.672 h -32.188 v -55.391 h 33.223 v 11.824" /><path
         id="path110"
         style="fill:#ef3120;fill-opacity:1;fill-rule:nonzero;stroke:none"
         d="m 764.199,209.277 c 0,6.844 -0.469,11.934 -0.801,14.071 1.192,-3.575 2.872,-7.547 4.297,-10.41 l 9.785,-19.227 h 14.61 v 55.391 h -13.496 v -17.168 c 0,-3.653 0.078,-9.141 0.488,-12.395 -1.355,3.731 -3.035,7.629 -4.629,10.566 l -10.098,18.997 h -13.664 v -55.391 h 13.508 v 15.566" /><path
         id="path112"
         style="fill:#ef3120;fill-opacity:1;fill-rule:nonzero;stroke:none"
         d="m 628.594,205.535 v 10.988 h 5.254 c 4.375,0 5.261,-2.472 5.261,-5.253 0,-3.418 -1.519,-5.735 -5.105,-5.735 z m 0,31.895 h 5.5 c 3.34,0 4.773,-1.524 4.773,-4.375 0,-2.871 -1.199,-5.254 -4.621,-5.254 h -5.652 z m 26.875,-26.641 c 0,6.68 -4.778,11.055 -10.176,12.481 6.125,1.992 8.184,7.226 8.184,12.246 0,10.175 -6.512,13.586 -14.532,13.586 h -24.558 v -55.391 h 22.488 c 12.637,0 18.594,6.992 18.594,17.078" /><path
         id="path114"
         style="fill:#ef3120;fill-opacity:1;fill-rule:nonzero;stroke:none"
         d="M 199.883,82.3438 H 152.891 L 129.773,41.5313 152.012,0 h 47.129 l -22.09,41.0938 22.832,41.25" /><path
         id="path116"
         style="fill:#ef3120;fill-opacity:1;fill-rule:nonzero;stroke:none"
         d="M 217.117,82.3438 198.262,49.9336 h 77.043 L 178.23,209.902 55.5352,0 h 38.5859 l 84.4019,145.234 38.594,-62.8902" /><path
         id="path118"
         style="fill:#ef3120;fill-opacity:1;fill-rule:nonzero;stroke:none"
         d="m 218.289,232.43 c -2.644,3.39 -11.48,22.687 -40.059,22.687 -29.167,0 -38.589,-20.031 -41.98,-25.332 C 132.715,224.473 0,0.144531 0,0.144531 L 37.8516,0 c 0,0 119.9024,202.977 127.4144,214.617 7.656,11.778 20.172,7.649 24.019,1.613 3.676,-6.183 92.055,-149.9409 99.719,-162.3237 1.758,-2.9375 2.644,-8.3907 -0.449,-14.1407 -2.942,-5.5859 -8.25,-7.0703 -12.071,-7.0703 H 197.969 L 217.117,0 h 62.746 c 6.035,0 24.016,2.51172 37.864,20.1758 16.785,21.5117 1.461,47.7344 -1.477,52.1484 -3.098,4.5625 -95.449,156.7188 -97.961,160.1058" /></g></g></svg>